<?xml version="1.0" encoding="UTF-8" standalone="no"?>
<!-- Created with Inkscape (http://www.inkscape.org/) -->

<svg
   width="210mm"
   height="297mm"
   viewBox="0 0 210 297"
   version="1.1"
   id="svg1"
   inkscape:version="1.4.2 (ebf0e940, 2025-05-08)"
   sodipodi:docname="decai.svg"
   xmlns:inkscape="http://www.inkscape.org/namespaces/inkscape"
   xmlns:sodipodi="http://sodipodi.sourceforge.net/DTD/sodipodi-0.dtd"
   xmlns="http://www.w3.org/2000/svg"
   xmlns:svg="http://www.w3.org/2000/svg">
  <sodipodi:namedview
     id="namedview1"
     pagecolor="#ffffff"
     bordercolor="#000000"
     borderopacity="0.25"
     inkscape:showpageshadow="2"
     inkscape:pageopacity="0.0"
     inkscape:pagecheckerboard="0"
     inkscape:deskcolor="#d1d1d1"
     inkscape:document-units="mm"
     inkscape:zoom="1.0482005"
     inkscape:cx="318.64133"
     inkscape:cy="426.92214"
     inkscape:window-width="1512"
     inkscape:window-height="960"
     inkscape:window-x="222"
     inkscape:window-y="44"
     inkscape:window-maximized="0"
     inkscape:current-layer="layer1" />
  <defs
     id="defs1" />
  <g
     inkscape:label="Layer 1"
     inkscape:groupmode="layer"
     id="layer1">
    <rect
       style="fill:#000000;fill-opacity:1;stroke:none;stroke-width:2;stroke-linecap:round;stroke-linejoin:round;stroke-opacity:1"
       id="rect2"
       width="186.28354"
       height="176.18687"
       x="1.5145004"
       y="23.979588"
       ry="0.047831953" />
    <path
       sodipodi:type="star"
       style="fill:#1a1a1a;stroke:#000000;stroke-width:2;stroke-linecap:round;stroke-linejoin:round"
       id="path1"
       inkscape:flatsided="false"
       sodipodi:sides="10"
       sodipodi:cx="71.751205"
       sodipodi:cy="102.09375"
       sodipodi:r1="53.804771"
       sodipodi:r2="49.845222"
       sodipodi:arg1="0.65927727"
       sodipodi:arg2="0.97343657"
       inkscape:rounded="0"
       inkscape:randomized="0"
       d="m 114.28039,135.05163 -14.49317,8.25532 -13.001341,10.44831 -16.577574,-1.84017 -16.659669,0.81086 -12.329911,-11.23279 -13.95457,-9.1363 -3.37264,-16.33486 -5.919299,-15.59371 6.872864,-15.197565 4.376943,-16.094859 14.493168,-8.255319 13.001341,-10.448311 16.577574,1.840177 16.659669,-0.810865 12.329915,11.232788 13.95457,9.136304 3.37264,16.334856 5.91929,15.593714 -6.87286,15.19757 z"
       transform="matrix(1.2188073,0,0,1.2188073,1.600691,-15.424646)" />
    <path
       sodipodi:type="star"
       style="fill:#37662e;fill-opacity:1;stroke:none;stroke-width:2;stroke-linecap:round;stroke-linejoin:round"
       id="path1-5"
       inkscape:flatsided="false"
       sodipodi:sides="10"
       sodipodi:cx="71.751205"
       sodipodi:cy="102.09375"
       sodipodi:r1="35.902484"
       sodipodi:r2="49.845222"
       sodipodi:arg1="0.32368816"
       sodipodi:arg2="0.63784749"
       inkscape:rounded="0"
       inkscape:randomized="0"
       d="m 105.78923,113.51309 6.0066,18.26187 -19.219401,-0.43572 -5.874621,18.30475 L 71.4091,137.9946 55.897164,149.35045 50.372443,130.93707 31.148226,131.00645 37.501747,112.86236 21.908246,101.61878 37.71318,90.674414 31.706582,72.412538 l 19.2194,0.435725 5.874621,-18.304757 15.292708,11.649389 15.511935,-11.355844 5.524722,18.413382 19.224212,-0.06938 -6.35352,18.144089 15.5935,11.243582 z"
       transform="matrix(1.2188073,0,0,1.2188073,0.97362416,-14.941195)" />
    <path
       sodipodi:type="star"
       style="fill:#800000;stroke:#000000;stroke-width:2;stroke-linecap:round;stroke-linejoin:round"
       id="path2"
       inkscape:flatsided="false"
       sodipodi:sides="10"
       sodipodi:cx="69.252403"
       sodipodi:cy="183.84013"
       sodipodi:r1="76.18972"
       sodipodi:r2="39.770834"
       sodipodi:arg1="0.94510027"
       sodipodi:arg2="1.2659605"
       inkscape:rounded="0.029345222"
       inkscape:randomized="0"
       d="m 113.8738,245.59614 c -0.96661,0.6886 -31.555039,-24.18254 -32.684714,-23.81876 -1.120974,0.36099 -10.958876,38.2632 -12.136488,38.25221 -1.186753,-0.0111 -11.314419,-38.11167 -12.442172,-38.48137 -1.119068,-0.36685 -31.356457,24.51411 -32.302709,23.81304 -0.953595,-0.70651 13.247923,-37.48344 12.552854,-38.44541 -0.689714,-0.95456 -39.7769375,1.40147 -40.1303916,0.27809 -0.3561976,-1.13209 32.7500076,-22.5378 32.7531166,-23.7246 0.0031,-1.17766 -33.0039804,-22.24649 -32.6296302,-23.36307 0.3772559,-1.12525 39.7427032,1.0165 40.4428022,0.0582 0.694707,-0.95093 -13.624624,-37.39704 -12.665459,-38.08034 0.966611,-0.68859 31.555037,24.18255 32.684712,23.81876 1.120974,-0.36098 10.958875,-38.26319 12.136488,-38.2522 1.186752,0.0111 11.314419,38.11167 12.442172,38.48137 1.119067,0.36685 31.356459,-24.51411 32.302709,-23.81304 0.95359,0.70651 -13.24792,37.48344 -12.55285,38.44541 0.68971,0.95456 39.77693,-1.40147 40.13039,-0.2781 0.35619,1.13209 -32.75001,22.53781 -32.75312,23.72461 -0.003,1.17766 33.00398,22.24649 32.62963,23.36307 -0.37726,1.12524 -39.7427,-1.01651 -40.4428,-0.0582 -0.69471,0.95093 13.62462,37.39704 12.66546,38.08033 z"
       transform="translate(19.276442,-75.320913)" />
    <path
       sodipodi:type="star"
       style="fill:#d45500;stroke:none;stroke-width:2;stroke-linecap:round;stroke-linejoin:round;stroke-opacity:1"
       id="path2-0"
       inkscape:flatsided="false"
       sodipodi:sides="10"
       sodipodi:cx="69.252403"
       sodipodi:cy="183.84013"
       sodipodi:r1="3.2911112"
       sodipodi:r2="71.359137"
       sodipodi:arg1="1.3521275"
       sodipodi:arg2="1.5760036"
       inkscape:rounded="0.029345222"
       inkscape:randomized="0"
       d="m 69.966345,187.05287 c -1.9053,0.60813 0.905346,68.33625 -1.085527,68.14543 -1.996473,-0.19135 0.964985,-67.70967 -0.939225,-68.33936 -1.898868,-0.62792 -39.434599,55.81734 -40.933089,54.49275 -1.502705,-1.3283 40.579437,-54.21107 39.409022,-55.83977 -1.167132,-1.62412 -64.7118681,21.9781 -65.1456023,20.0257 -0.43495449,-1.95789 64.6939243,-20.00568 64.7043623,-22.01128 0.01041,-1.99997 -65.27140303,-20.25603 -64.4747102,-22.09049 0.7989341,-1.83963 64.0975312,21.84119 65.2848352,20.22477 1.183973,-1.61189 -40.89948,-54.75304 -39.17667,-55.76887 1.727657,-1.01869 39.01806,55.34548 40.92872,54.73564 1.905301,-0.60812 -0.905346,-68.33625 1.085527,-68.14543 1.996474,0.19136 -0.964984,67.70968 0.939225,68.33937 1.898868,0.62792 39.434597,-55.81734 40.933087,-54.49276 1.50271,1.32831 -40.579435,54.21108 -39.409019,55.83977 1.167131,1.62413 64.711869,-21.97809 65.145599,-20.0257 0.43496,1.9579 -64.693921,20.00569 -64.704359,22.01129 -0.01041,1.99997 65.271399,20.25602 64.474709,22.09049 -0.79893,1.83963 -64.09753,-21.8412 -65.284834,-20.22477 -1.183973,1.61189 40.899484,54.75304 39.176674,55.76887 -1.72766,1.01869 -39.018064,-55.34548 -40.928725,-54.73565 z"
       transform="translate(19.25264,-74.484719)" />
    <path
       sodipodi:type="star"
       style="fill:#ffb380;stroke:none;stroke-width:2;stroke-linecap:round;stroke-linejoin:round;stroke-opacity:1"
       id="path2-0-7"
       inkscape:flatsided="false"
       sodipodi:sides="10"
       sodipodi:cx="69.252403"
       sodipodi:cy="183.84013"
       sodipodi:r1="2.0329688"
       sodipodi:r2="36.653175"
       sodipodi:arg1="1.3051581"
       sodipodi:arg2="1.5885803"
       inkscape:rounded="0.029345222"
       inkscape:randomized="0"
       d="m 69.786109,185.8018 c -0.974051,0.29744 -0.168255,34.73512 -1.18551,34.68571 -1.01845,-0.0495 0.894533,-34.41437 -0.06946,-34.74665 -0.962858,-0.3319 -20.552916,28.00241 -21.346851,27.36451 -0.794867,-0.63865 20.951954,-27.31602 20.367382,-28.15147 -0.583886,-0.83446 -33.087061,10.57373 -33.354419,9.59099 -0.267673,-0.98389 33.006439,-9.78387 33.024571,-10.80336 0.01811,-1.01829 -32.983073,-10.89376 -32.621734,-11.84596 0.361764,-0.95332 32.453587,11.48538 33.067497,10.67125 0.61319,-0.81317 -20.280673,-28.2002 -19.428655,-28.75816 0.853019,-0.55861 19.504568,28.36761 20.479763,28.06981 0.974051,-0.29744 0.168255,-34.73512 1.18551,-34.68572 1.01845,0.0495 -0.894534,34.41438 0.06946,34.74666 0.962858,0.3319 20.552915,-28.00241 21.34685,-27.36451 0.794868,0.63865 -20.951953,27.31602 -20.367382,28.15146 0.583886,0.83446 33.087059,-10.57372 33.354419,-9.59099 0.26767,0.98389 -33.006439,9.78388 -33.024571,10.80337 -0.01811,1.01829 32.983071,10.89376 32.621731,11.84596 -0.36176,0.95332 -32.453584,-11.48538 -33.067494,-10.67125 -0.613189,0.81317 20.280674,28.2002 19.428655,28.75816 C 89.412852,214.43022 70.761304,185.504 69.786109,185.8018 Z"
       transform="rotate(-17.984043,-157.18948,86.992365)" />
  </g>
</svg>
