<?xml version="1.0" encoding="UTF-8" standalone="no"?>
<!-- Created with Inkscape (https://www.inkscape.org/) -->

<svg
   id="svg3004"
   version="1.1"
   inkscape0:version="0.48.2 r9819"
   width="500"
   height="300"
   xml:space="preserve"
   sodipodi0:docname="r2.svg"
   sodipodi:docname="r2ai-solid-white.svg"
   inkscape:version="1.4 (e7c3feb100, 2024-10-09)"
   xmlns:inkscape="http://www.inkscape.org/namespaces/inkscape"
   xmlns:sodipodi="http://sodipodi.sourceforge.net/DTD/sodipodi-0.dtd"
   xmlns:xlink="http://www.w3.org/1999/xlink"
   xmlns="http://www.w3.org/2000/svg"
   xmlns:svg="http://www.w3.org/2000/svg"
   xmlns:inkscape0="https://www.inkscape.org/namespaces/inkscape"
   xmlns:sodipodi0="https://sodipodi.sourceforge.net/DTD/sodipodi-0.dtd"
   xmlns:ns0="https://creativecommons.org/ns#"
   xmlns:ns="https://www.w3.org/1999/02/22-rdf-syntax-ns#"
   xmlns:ns1="https://purl.org/dc/elements/1.1/"><sodipodi:namedview
     id="namedview1"
     pagecolor="#ffffff"
     bordercolor="#000000"
     borderopacity="0.25"
     inkscape:showpageshadow="2"
     inkscape:pageopacity="0.0"
     inkscape:pagecheckerboard="0"
     inkscape:deskcolor="#d1d1d1"
     showgrid="false"
     showguides="true"
     inkscape:zoom="1.207"
     inkscape:cx="170.25684"
     inkscape:cy="153.27258"
     inkscape:window-width="1714"
     inkscape:window-height="845"
     inkscape:window-x="26"
     inkscape:window-y="23"
     inkscape:window-maximized="0"
     inkscape:current-layer="svg3004" /><metadata
     id="metadata3010"><RDF><ns0:Work
         ns:about=""><ns1:format>image/svg+xml</ns1:format><ns1:type
           ns:resource="https://purl.org/dc/dcmitype/StillImage" /><ns1:title /></ns0:Work></RDF></metadata><defs
     id="defs3008"><pattern
       inkscape:collect="always"
       xlink:href="#pattern6"
       preserveAspectRatio="xMidYMid"
       id="pattern7"
       patternTransform="translate(-3.203125e-6)" /><clipPath
       clipPathUnits="userSpaceOnUse"
       id="clipPath3018"><path
         d="m 0,841.89 1190.55,0 L 1190.55,0 0,0 0,841.89 z"
         id="path3020"
         inkscape0:connector-curvature="0" /></clipPath><pattern
       patternUnits="userSpaceOnUse"
       width="1.2374369"
       height="110.30865"
       patternTransform="translate(295.04028,-128.87021)"
       preserveAspectRatio="xMidYMid"
       id="pattern6"><rect
         style="fill-opacity:1;stroke:none;stroke-width:0.755906"
         id="rect6"
         width="1.2374369"
         height="110.30865"
         x="0"
         y="0"
         ry="0.61871845" /></pattern><marker
       markerWidth="1.2374369"
       markerHeight="110.30865"
       refX="0.61871845"
       refY="55.154324"
       orient="auto"
       id="marker7"><rect
         style="fill:url(#pattern7);stroke:none"
         width="1.2374369"
         height="110.30865"
         x="0"
         y="0"
         id="rect7" /></marker></defs><sodipodi0:namedview
     pagecolor="#ffffff"
     bordercolor="#666666"
     borderopacity="1"
     objecttolerance="10"
     gridtolerance="10"
     guidetolerance="10"
     inkscape0:pageopacity="0"
     inkscape0:pageshadow="2"
     inkscape0:window-width="791"
     inkscape0:window-height="818"
     id="namedview3006"
     showgrid="false"
     inkscape0:zoom="0.39912236"
     inkscape0:cx="715.69007"
     inkscape0:cy="676.77258"
     inkscape0:window-x="2687"
     inkscape0:window-y="256"
     inkscape0:window-maximized="0"
     inkscape0:current-layer="g3012" /><path
     id="path3496-8-6-5-6-6-2"
     style="fill:#c8191c;fill-opacity:1;fill-rule:nonzero;stroke:none;stroke-width:1.30402"
     d="m 325.38488,77.033582 c 0,0 -84.14563,42.868488 -84.89316,43.234548 l 12.82427,24.21005 h 72.06889 z m -142.20506,71.694888 49.85451,24.92726 12.85076,-24.2732 -13.29459,-25.13029 c -12.94186,6.3903 -34.27459,16.93531 -49.41068,24.47623 z m 70.6374,4.61097 -12.85482,24.27931 84.42248,42.80665 v -67.08596 z"
     sodipodi:nodetypes="ccccccccccccccc" /><path
     id="path3496-8-6-5-6-6-2-2"
     style="fill:#c8191c;fill-opacity:1;fill-rule:nonzero;stroke:none;stroke-width:1.30402"
     d="m 467.89541,76.210715 c 0,0 -84.14563,42.868485 -84.89315,43.234545 l 12.82426,24.21005 h 72.06889 z m -142.20506,71.694895 49.85451,24.92725 12.85076,-24.2732 -13.29459,-25.13029 c -12.94186,6.3903 -34.27459,16.93532 -49.41068,24.47624 z m 70.6374,4.61096 -12.85482,24.27931 84.42248,42.80665 v -67.08596 z"
     sodipodi:nodetypes="ccccccccccccccc" /><path
     d="M 183.41964,89.200886 V 213.41057 h 15.49313 v 7.01435 H 90.772581 v -7.01435 h 20.749649 v -67.21858 c 0,-11.98138 0.8776,-22.50487 -3.21182,-33.90204 -0.8776,-2.92232 -9.641954,-19.579945 -14.028698,-12.27479 1.17101,4.38544 1.755211,9.35247 1.755211,13.73921 0,19.57733 -13.445796,32.14422 -32.733634,32.14422 -20.165439,0 -34.192836,-14.02741 -34.192836,-34.19284 0,-21.04176 18.412827,-32.437632 37.700665,-32.437632 20.745742,0 37.403352,11.102474 47.055742,28.931102 h 0.57899 V 78.680007 c 28.05349,0.877612 56.4043,3.507829 84.46692,3.507829 v 7.01305 z"
     style="fill:#ffffff;fill-opacity:1;fill-rule:nonzero;stroke:none;stroke-width:1.30402"
     id="path3492-8-7"
     inkscape0:connector-curvature="0" /></svg>
