<?xml version="1.0" encoding="UTF-8" standalone="no"?>
<!-- Created with Inkscape (https://www.inkscape.org/) -->

<svg
   id="svg3004"
   version="1.1"
   inkscape0:version="0.48.2 r9819"
   width="500"
   height="300"
   xml:space="preserve"
   sodipodi0:docname="r2.svg"
   sodipodi:docname="r2ai.svg"
   inkscape:version="1.4 (e7c3feb100, 2024-10-09)"
   xmlns:inkscape="http://www.inkscape.org/namespaces/inkscape"
   xmlns:sodipodi="http://sodipodi.sourceforge.net/DTD/sodipodi-0.dtd"
   xmlns:xlink="http://www.w3.org/1999/xlink"
   xmlns="http://www.w3.org/2000/svg"
   xmlns:svg="http://www.w3.org/2000/svg"
   xmlns:inkscape0="https://www.inkscape.org/namespaces/inkscape"
   xmlns:sodipodi0="https://sodipodi.sourceforge.net/DTD/sodipodi-0.dtd"
   xmlns:ns0="https://creativecommons.org/ns#"
   xmlns:ns="https://www.w3.org/1999/02/22-rdf-syntax-ns#"
   xmlns:ns1="https://purl.org/dc/elements/1.1/"><sodipodi:namedview
     id="namedview1"
     pagecolor="#ffffff"
     bordercolor="#000000"
     borderopacity="0.25"
     inkscape:showpageshadow="2"
     inkscape:pageopacity="0.0"
     inkscape:pagecheckerboard="0"
     inkscape:deskcolor="#d1d1d1"
     showgrid="false"
     showguides="true"
     inkscape:zoom="1.207"
     inkscape:cx="170.25684"
     inkscape:cy="153.27258"
     inkscape:window-width="1714"
     inkscape:window-height="845"
     inkscape:window-x="26"
     inkscape:window-y="23"
     inkscape:window-maximized="0"
     inkscape:current-layer="svg3004" /><metadata
     id="metadata3010"><RDF><ns0:Work
         ns:about=""><ns1:format>image/svg+xml</ns1:format><ns1:type
           ns:resource="https://purl.org/dc/dcmitype/StillImage" /><ns1:title /></ns0:Work></RDF></metadata><defs
     id="defs3008"><marker
       style="overflow:visible"
       id="Stop"
       refX="0"
       refY="0"
       orient="auto"
       inkscape:stockid="Stop"
       markerWidth="2"
       markerHeight="19"
       viewBox="0 0 1 1"
       inkscape:isstock="true"
       inkscape:collect="always"
       preserveAspectRatio="none"><path
         style="fill:none;stroke:context-stroke;stroke-width:1"
         d="M 0,4 V -4"
         id="path23" /></marker><pattern
       inkscape:collect="always"
       xlink:href="#pattern6"
       preserveAspectRatio="xMidYMid"
       id="pattern7"
       patternTransform="translate(-3.203125e-6)" /><clipPath
       clipPathUnits="userSpaceOnUse"
       id="clipPath3018"><path
         d="m 0,841.89 1190.55,0 L 1190.55,0 0,0 0,841.89 z"
         id="path3020"
         inkscape0:connector-curvature="0" /></clipPath><pattern
       patternUnits="userSpaceOnUse"
       width="1.2374369"
       height="110.30865"
       patternTransform="translate(295.04028,-128.87021)"
       preserveAspectRatio="xMidYMid"
       id="pattern6"><rect
         style="fill-opacity:1;stroke:none;stroke-width:0.755906"
         id="rect6"
         width="1.2374369"
         height="110.30865"
         x="0"
         y="0"
         ry="0.61871845" /></pattern><marker
       markerWidth="1.2374369"
       markerHeight="110.30865"
       refX="0.61871845"
       refY="55.154324"
       orient="auto"
       id="marker7"><rect
         style="fill:url(#pattern7);stroke:none"
         width="1.2374369"
         height="110.30865"
         x="0"
         y="0"
         id="rect7" /></marker><marker
       style="overflow:visible"
       id="Stop-3"
       refX="0"
       refY="0"
       orient="auto"
       inkscape:stockid="Stop"
       markerWidth="1"
       markerHeight="19"
       viewBox="0 0 1 1"
       inkscape:isstock="true"
       inkscape:collect="always"
       preserveAspectRatio="none"><path
         style="fill:none;stroke:context-stroke;stroke-width:1"
         d="M 0,4 V -4"
         id="path23-6" /></marker><marker
       style="overflow:visible"
       id="Stop-3-3"
       refX="0"
       refY="0"
       orient="auto"
       inkscape:stockid="Stop"
       markerWidth="1"
       markerHeight="19"
       viewBox="0 0 1 1"
       inkscape:isstock="true"
       inkscape:collect="always"
       preserveAspectRatio="none"><path
         style="fill:none;stroke:context-stroke;stroke-width:1"
         d="M 0,4 V -4"
         id="path23-6-5" /></marker><marker
       style="overflow:visible"
       id="Stop-6"
       refX="0"
       refY="0"
       orient="auto"
       inkscape:stockid="Stop"
       markerWidth="2"
       markerHeight="19"
       viewBox="0 0 1 1"
       inkscape:isstock="true"
       inkscape:collect="always"
       preserveAspectRatio="none"><path
         style="fill:none;stroke:context-stroke;stroke-width:1"
         d="M 0,4 V -4"
         id="path23-0" /></marker></defs><rect
     style="fill:#000000;fill-opacity:1;stroke:none;stroke-width:0.755906"
     id="rect5"
     width="381.13055"
     height="146.37111"
     x="62.225395"
     y="141.42136"
     ry="0.6875" /><sodipodi0:namedview
     pagecolor="#ffffff"
     bordercolor="#666666"
     borderopacity="1"
     objecttolerance="10"
     gridtolerance="10"
     guidetolerance="10"
     inkscape0:pageopacity="0"
     inkscape0:pageshadow="2"
     inkscape0:window-width="791"
     inkscape0:window-height="818"
     id="namedview3006"
     showgrid="false"
     inkscape0:zoom="0.39912236"
     inkscape0:cx="715.69007"
     inkscape0:cy="676.77258"
     inkscape0:window-x="2687"
     inkscape0:window-y="256"
     inkscape0:window-maximized="0"
     inkscape0:current-layer="g3012" /><path
     id="path3496-8-6-5-6"
     style="fill:#c8191c;fill-opacity:1;fill-rule:nonzero;stroke:none;stroke-width:0.96065"
     d="m 409.32718,13.961811 c 0,0 -62.86723,31.580382 -63.41792,31.850056 l 9.44739,17.835078 h 53.97053 z m -105.6385,52.816247 36.72686,18.363427 9.46691,-17.881604 -9.79387,-18.512997 c -9.53402,4.707609 -25.24943,12.475918 -36.3999,18.031174 z m 52.03722,3.396805 -9.4699,17.8861 63.07118,31.534837 V 70.174863 Z"
     sodipodi:nodetypes="ccccccccccccccc" /><path
     id="path3496-8-6-5-6-6"
     style="fill:#c8191c;fill-opacity:1;fill-rule:nonzero;stroke:none;stroke-width:0.96065"
     d="m 303.71834,13.970537 c 0,0 -62.86723,31.580387 -63.41792,31.850061 l 9.44739,17.835077 h 53.97053 z m -105.6385,52.816251 36.72686,18.363428 9.46691,-17.881604 -9.79387,-18.512998 c -9.53402,4.707609 -25.24943,12.475918 -36.3999,18.031174 z m 52.03722,3.396805 -9.4699,17.8861 63.07118,31.534837 V 70.183593 Z"
     sodipodi:nodetypes="ccccccccccccccc" /><path
     style="fill:#ececec;fill-opacity:1;stroke:#ffffff;stroke-width:0.755906;stroke-dasharray:0, 8.31497;stroke-dashoffset:0;stroke-opacity:1;marker-mid:url(#Stop-3)"
     d="m 303.83057,67.231304 -3.29247,-0.01657 -3.29246,-0.01657 -3.29247,-0.01657 -3.29246,-0.01657 -3.29247,-0.01657 -3.29247,-0.01657 -3.29246,-0.01657 -3.29247,-0.01657 -3.29246,-0.01657 -3.29247,-0.01657 -3.29247,-0.01657 -3.29246,-0.01657 -3.29247,-0.01657 -3.29246,-0.01657 -3.29247,-0.01657 -3.29247,-0.01657 -3.29246,-0.01657 -3.29247,-0.01657 -3.29246,-0.01657 -3.29247,-0.01657 -3.29246,-0.01657 -3.29247,-0.01657 -3.29247,-0.01657 -3.29246,-0.01657 -3.29247,-0.01657 -3.29246,-0.01657 -3.29247,-0.01657 -3.29247,-0.01657 -3.29246,-0.01657 -3.29247,-0.01657 -3.29246,-0.01657 -3.29247,-0.01657"
     id="path7-5"
     sodipodi:nodetypes="ccccccccccccccccccccccccccccccccc" /><path
     style="fill:#ececec;fill-opacity:1;stroke:#ffffff;stroke-width:0.755906;stroke-dasharray:0, 8.31497;stroke-dashoffset:0;stroke-opacity:1;marker-mid:url(#Stop-3-3)"
     d="m 409.35891,66.9637 -3.29247,-0.01657 -3.29246,-0.01657 -3.29247,-0.01657 -3.29246,-0.01657 -3.29247,-0.01657 -3.29247,-0.01657 -3.29246,-0.01657 -3.29247,-0.01657 -3.29246,-0.01657 -3.29247,-0.01657 -3.29247,-0.01657 -3.29246,-0.01657 -3.29247,-0.01657 -3.29246,-0.01657 -3.29247,-0.01657 -3.29247,-0.01657 -3.29246,-0.01657 -3.29247,-0.01657 -3.29246,-0.01657 -3.29247,-0.01657 -3.29246,-0.01657 -3.29247,-0.01657 -3.29247,-0.01657 -3.29246,-0.01657 -3.29247,-0.01657 -3.29246,-0.01657 -3.29247,-0.01657 -3.29247,-0.01657 -3.29246,-0.01657 -3.29247,-0.01657 -3.29246,-0.01657 L 304,66.43346"
     id="path7-5-2"
     sodipodi:nodetypes="ccccccccccccccccccccccccccccccccc" /><g
     id="g5"><path
       id="path3496-8-6-5-6-6-2"
       style="fill:#c8191c;fill-opacity:1;fill-rule:nonzero;stroke:none;stroke-width:0.96065"
       d="m 306.19367,160.96204 c 0,0 -61.98847,31.58039 -62.53916,31.85006 l 9.44739,17.83508 h 53.09177 z m -104.75974,52.81625 36.72686,18.36343 9.46691,-17.8816 -9.79387,-18.513 c -9.53402,4.70761 -25.24943,12.47592 -36.3999,18.03117 z m 52.03722,3.39681 -9.4699,17.8861 62.19242,31.53484 V 217.1751 Z"
       sodipodi:nodetypes="ccccccccccccccc" /><path
       style="opacity:1;fill:#1a1a1a;fill-opacity:1;stroke:#000000;stroke-width:0.755906;stroke-dasharray:0, 8.31497;stroke-dashoffset:0;stroke-opacity:1;marker-mid:url(#Stop)"
       d="m 306.73753,215.43843 -3.29247,-0.0166 -3.29246,-0.0166 -3.29247,-0.0166 -3.29246,-0.0166 -3.29247,-0.0166 -3.29247,-0.0166 -3.29246,-0.0166 -3.29247,-0.0166 -3.29246,-0.0166 -3.29247,-0.0166 -3.29247,-0.0166 -3.29246,-0.0166 -3.29247,-0.0166 -3.29246,-0.0166 -3.29247,-0.0166 -3.29247,-0.0166 -3.29246,-0.0166 -3.29247,-0.0166 -3.29246,-0.0166 -3.29247,-0.0166 -3.29246,-0.0166 -3.29247,-0.0166 -3.29247,-0.0166 -3.29246,-0.0166 -3.29247,-0.0166 -3.29246,-0.0166 -3.29247,-0.0166 -3.29247,-0.0166 -3.29246,-0.0166 -3.29247,-0.0166 -3.29246,-0.0166 -3.29247,-0.0156"
       id="path7-5-9"
       sodipodi:nodetypes="ccccccccccccccccccccccccccccccccc" /></g><g
     id="g4"><path
       id="path3496-8-6-5-6-6-2-2"
       style="fill:#c8191c;fill-opacity:1;fill-rule:nonzero;stroke:none;stroke-width:0.96065"
       d="m 417.07189,160.35585 c 0,0 -61.98847,31.58039 -62.53916,31.85006 l 9.44739,17.83508 h 53.09177 z m -104.75974,52.81625 36.72686,18.36343 9.46691,-17.8816 -9.79387,-18.513 c -9.53402,4.70761 -25.24943,12.47592 -36.3999,18.03117 z m 52.03722,3.39681 -9.4699,17.8861 62.19242,31.53484 v -49.42094 z"
       sodipodi:nodetypes="ccccccccccccccc" /><path
       style="fill:#1a1a1a;fill-opacity:1;stroke:#000000;stroke-width:0.755906;stroke-dasharray:0, 8.31497;stroke-dashoffset:0;stroke-opacity:1;marker-mid:url(#Stop-6)"
       d="m 417.61575,214.83224 -3.29247,-0.0166 -3.29246,-0.0166 -3.29247,-0.0166 -3.29246,-0.0166 -3.29247,-0.0166 -3.29247,-0.0166 -3.29246,-0.0166 -3.29247,-0.0166 -3.29246,-0.0166 -3.29247,-0.0166 -3.29247,-0.0166 -3.29246,-0.0166 -3.29247,-0.0166 -3.29246,-0.0166 -3.29247,-0.0166 -3.29247,-0.0166 -3.29246,-0.0166 -3.29247,-0.0166 -3.29246,-0.0166 -3.29247,-0.0166 -3.29246,-0.0166 -3.29247,-0.0166 -3.29247,-0.0166 -3.29246,-0.0166 -3.29247,-0.0166 -3.29246,-0.0166 -3.29247,-0.0166 -3.29247,-0.0166 -3.29246,-0.0166 -3.29247,-0.0166 -3.29246,-0.0166 -3.29247,-0.0156"
       id="path7-5-9-6"
       sodipodi:nodetypes="ccccccccccccccccccccccccccccccccc" /></g><path
     d="M 198.25651,22.933951 V 114.43684 H 209.67 v 5.16734 h -79.6648 v -5.16734 h 15.28587 V 64.918208 c 0,-8.826454 0.64651,-16.578901 -2.36609,-24.974984 -0.64651,-2.152817 -7.10304,-14.424164 -10.33467,-9.042602 0.86266,3.230669 1.29303,6.889785 1.29303,10.121413 0,14.422241 -9.90526,23.680027 -24.11424,23.680027 -14.855492,0 -25.189206,-10.333714 -25.189206,-25.189209 0,-15.501054 13.56438,-23.896176 27.773356,-23.896176 15.28299,0 27.55433,8.178976 34.66506,21.312988 h 0.42653 V 15.183424 c 20.66647,0.646518 41.55197,2.58415 62.22516,2.58415 v 5.166377 z"
     style="fill:#231f20;fill-opacity:1;fill-rule:nonzero;stroke:none;stroke-width:0.96065"
     id="path3492-8"
     inkscape0:connector-curvature="0" /><path
     d="m 201.6106,169.92546 v 91.50289 h 11.41349 v 5.16734 h -79.6648 v -5.16734 h 15.28587 v -49.51864 c 0,-8.82645 0.64651,-16.5789 -2.36609,-24.97498 -0.64651,-2.15282 -7.10304,-14.42417 -10.33467,-9.0426 0.86266,3.23067 1.29303,6.88978 1.29303,10.12141 0,14.42224 -9.90526,23.68003 -24.11424,23.68003 -14.855492,0 -25.189206,-10.33372 -25.189206,-25.18921 0,-15.50106 13.564376,-23.89618 27.773356,-23.89618 15.28299,0 27.55433,8.17898 34.66506,21.31299 h 0.42653 v -21.74624 c 20.66647,0.64652 41.55197,2.58415 62.22516,2.58415 v 5.16638 z"
     style="fill:#ffffff;fill-opacity:1;fill-rule:nonzero;stroke:none;stroke-width:0.96065"
     id="path3492-8-7"
     inkscape0:connector-curvature="0" /></svg>
